<svg width="56" height="56" viewBox="0 0 32 32" fill="none" xmlns="http://www.w3.org/2000/svg">
<path d="M29.3126 13.3333C29.2631 11.5852 29.0969 10.4707 28.5369 9.51965C27.7403 8.16697 26.3059 7.41421 23.437 5.90869L20.7703 4.50929C18.4295 3.28088 17.2591 2.66666 16.0001 2.66666C14.741 2.66666 13.5706 3.28088 11.2298 4.50929L8.56313 5.90869C5.69425 7.41421 4.2598 8.16697 3.46328 9.51965C2.66675 10.8723 2.66675 12.5556 2.66675 15.922V16.078C2.66675 19.4444 2.66675 21.1277 3.46328 22.4804C4.2598 23.8331 5.69425 24.5857 8.56313 26.0913L11.2298 27.4907C13.5706 28.7191 14.741 29.3333 16.0001 29.3333C17.2591 29.3333 18.4295 28.7191 20.7703 27.4907L23.437 26.0913C26.3059 24.5857 27.7403 23.8331 28.5369 22.4804C29.0969 21.5292 29.2631 20.4148 29.3126 18.6667" stroke="black" stroke-width="2" stroke-linecap="round"/>
<path d="M28 10L22.6667 12.6667M22.6667 12.6667C22.6667 12.6667 22.2604 12.8698 22 13C19.6568 14.1716 16 16 16 16M22.6667 12.6667V17.3333M22.6667 12.6667L10 6M16 16L4 10M16 16V28.6667" stroke="black" stroke-width="2" stroke-linecap="round"/>
</svg>
