<svg width="56" height="56" viewBox="0 0 32 32" fill="none" xmlns="http://www.w3.org/2000/svg">
<g clip-path="url(#clip0_27_383)">
<path d="M26.6893 19.5587L30.6666 18.0853L30.6506 13.808L26.6559 12.3613C26.4933 11.8821 26.2987 11.4144 26.0733 10.9613L27.8453 7.104L24.8093 4.09067L20.9613 5.892C20.5074 5.6667 20.0388 5.47248 19.5586 5.31067L18.0853 1.33333L13.8079 1.34933L12.3613 5.344C11.8821 5.50669 11.4144 5.70135 10.9613 5.92667L7.10392 4.15467L4.09059 7.18933L5.89192 11.04C5.66655 11.4938 5.47233 11.9625 5.31059 12.4427L1.33325 13.9147L1.34925 18.192L5.34392 19.6387C5.50652 20.1179 5.70118 20.5856 5.92659 21.0387L4.15459 24.896L7.18925 27.9093L11.0386 26.108C11.4924 26.3333 11.9611 26.5276 12.4413 26.6893L13.9146 30.6667L18.1919 30.6507L19.6386 26.656C20.1178 26.4933 20.5855 26.2987 21.0386 26.0733L24.8959 27.8453L27.9093 24.8107L26.1079 20.9613C26.3333 20.5075 26.5275 20.0389 26.6893 19.5587ZM26.3066 24.532L24.6066 26.2453L21.0146 24.5947L20.4426 24.8813C20.0419 25.0795 19.6286 25.251 19.2053 25.3947L18.6026 25.6027L17.2559 29.3213L14.8426 29.3307L13.4693 25.6253L12.8613 25.424C12.4386 25.281 12.026 25.1095 11.6266 24.9107L11.0533 24.6307L7.46925 26.3067L5.75459 24.6067L7.40659 21.0133L7.11859 20.44C6.91985 20.0403 6.74791 19.6278 6.60392 19.2053L6.39725 18.6027L2.67725 17.256L2.67059 14.8427L6.37325 13.4693L6.57592 12.8613C6.71865 12.4383 6.88971 12.0254 7.08792 11.6253L7.37059 11.052L5.69325 7.468L7.39325 5.75467L10.9853 7.40533L11.5573 7.11867C11.9579 6.92049 12.3713 6.74901 12.7946 6.60533L13.3973 6.39733L14.7439 2.67867L17.1573 2.66933L18.5306 6.37467L19.1386 6.576C19.5609 6.71886 19.973 6.89037 20.3719 7.08933L20.9453 7.37067L24.5333 5.69333L26.2466 7.39333L24.5946 10.9867L24.8826 11.56C25.0813 11.9597 25.2533 12.3722 25.3973 12.7947L25.6039 13.3973L29.3239 14.744L29.3306 17.1573L25.6279 18.5307L25.4253 19.1387C25.2825 19.5617 25.1115 19.9746 24.9133 20.3747L24.6306 20.948L26.3066 24.532ZM15.9999 9.6C14.7341 9.6 13.4967 9.97535 12.4443 10.6786C11.3918 11.3818 10.5715 12.3814 10.0871 13.5508C9.60269 14.7203 9.47595 16.0071 9.72289 17.2486C9.96984 18.4901 10.5794 19.6304 11.4744 20.5255C12.3695 21.4205 13.5099 22.0301 14.7513 22.277C15.9928 22.524 17.2796 22.3972 18.4491 21.9128C19.6185 21.4284 20.6181 20.6081 21.3213 19.5556C22.0246 18.5032 22.3999 17.2658 22.3999 16C22.3999 14.3026 21.7256 12.6747 20.5254 11.4745C19.3252 10.2743 17.6973 9.6 15.9999 9.6ZM15.9999 21.0667C14.9978 21.0667 14.0182 20.7695 13.185 20.2128C12.3518 19.656 11.7024 18.8647 11.3189 17.9389C10.9354 17.0131 10.8351 15.9944 11.0306 15.0115C11.2261 14.0287 11.7087 13.1259 12.4172 12.4173C13.1258 11.7087 14.0286 11.2262 15.0115 11.0307C15.9943 10.8352 17.013 10.9355 17.9388 11.319C18.8647 11.7025 19.656 12.3519 20.2127 13.1851C20.7694 14.0183 21.0666 14.9979 21.0666 16C21.0652 17.3433 20.5309 18.6312 19.581 19.5811C18.6312 20.531 17.3433 21.0653 15.9999 21.0667Z" fill="black"/>
</g>
<defs>
<clipPath id="clip0_27_383">
<rect width="32" height="32" fill="white"/>
</clipPath>
</defs>
</svg>
