<svg width="56" height="56" viewBox="0 0 32 32" fill="none" xmlns="http://www.w3.org/2000/svg">
<path d="M29.3334 29.3333H2.66675" stroke="black" stroke-width="1.5" stroke-linecap="round"/>
<path d="M2.66675 14.6667L8.08403 10.3329M29.3334 14.6667L18.4989 5.99908C17.0379 4.83039 14.9622 4.83039 13.5013 5.99908L12.4587 6.83314" stroke="black" stroke-width="1.5" stroke-linecap="round"/>
<path d="M20.6667 7.33333V4.66667C20.6667 4.29848 20.9653 4 21.3334 4H24.6667C25.0349 4 25.3334 4.29848 25.3334 4.66667V11.3333" stroke="black" stroke-width="1.5" stroke-linecap="round"/>
<path d="M5.33325 29.3333V12.6667" stroke="black" stroke-width="1.5" stroke-linecap="round"/>
<path d="M26.6667 12.6667V18M26.6667 29.3333V23.3333" stroke="black" stroke-width="1.5" stroke-linecap="round"/>
<path d="M20 29.3333V22.6667C20 20.7811 20 19.8383 19.4143 19.2524C18.8284 18.6667 17.8856 18.6667 16 18.6667C14.1144 18.6667 13.1716 18.6667 12.5858 19.2524M12 29.3333V22.6667" stroke="black" stroke-width="1.5" stroke-linecap="round" stroke-linejoin="round"/>
<path d="M18.6666 12.6667C18.6666 14.1395 17.4727 15.3333 15.9999 15.3333C14.5271 15.3333 13.3333 14.1395 13.3333 12.6667C13.3333 11.1939 14.5271 10 15.9999 10C17.4727 10 18.6666 11.1939 18.6666 12.6667Z" stroke="black" stroke-width="1.5"/>
</svg>
